<svg xmlns="http://www.w3.org/2000/svg"><defs><style>.cls-1{fill:#231815;}</style></defs><title>OSSAsmall</title><g id="图层_2" data-name="图层 2"><g id="图层_2-2" data-name="图层 2"><polygon class="cls-1" points="1.93 17.83 1.93 17.44 6.04 14.38 6.04 14.97 2.45 17.63 6.04 20.28 6.04 20.91 1.93 17.83"/><polygon class="cls-1" points="8.56 15.94 8.56 15.34 14.22 11.11 14.22 12.13 9.5 15.63 14.22 19.11 14.22 20.18 8.56 15.94"/><polygon class="cls-1" points="17.32 14.05 17.32 13.23 24.53 7.85 24.53 9.29 18.68 13.63 24.53 17.95 24.53 19.46 17.32 14.05"/><path class="cls-1" d="M28.61,20a89.7,89.7,0,0,0-12.34,1.44c-.71.14-1.41.26-2.11.43s-1.39.29-2.09.48-1.38.35-2.07.55l-1,.29-1,.32A53.86,53.86,0,0,0,0,26.72a70.76,70.76,0,0,1,8.11-2.59l1-.26,1-.24c.68-.17,1.38-.3,2.07-.44s1.39-.27,2.09-.4,1.39-.24,2.09-.35a108.36,108.36,0,0,1,11.65-1.15Z"/><path class="cls-1" d="M58.74,23.54l-1-.31-1-.29c-.68-.21-1.38-.38-2.07-.55s-1.39-.33-2.09-.49-1.4-.28-2.1-.42a93.24,93.24,0,0,0-17.08-1.56c-.8,0-1.61,0-2.41,0l-.54,1.26c1,0,2,0,3,0a111.25,111.25,0,0,1,16.91,1.27c.7.11,1.4.21,2.09.35s1.4.25,2.09.4,1.39.28,2.08.44l1,.24c.35.08.69.18,1,.27a68.21,68.21,0,0,1,8.11,2.58A53.47,53.47,0,0,0,58.74,23.54Z"/><polygon class="cls-1" points="27.59 23.36 37.52 0 39.02 0 29.08 23.36 27.59 23.36"/><polygon class="cls-1" points="42.09 17.95 47.93 13.63 42.09 9.29 42.09 7.76 49.3 13.23 49.3 14.05 42.09 19.39 42.09 17.95"/><polygon class="cls-1" points="52.4 19.11 57.11 15.63 52.4 12.13 52.4 11.04 58.06 15.34 58.06 15.94 52.4 20.13 52.4 19.11"/><polygon class="cls-1" points="60.58 20.28 64.16 17.63 60.58 14.97 60.58 14.33 64.69 17.44 64.69 17.83 60.58 20.87 60.58 20.28"/><path class="cls-1" d="M21.56,24.49a3.36,3.36,0,0,0-1-.12H15.26a3.24,3.24,0,0,0-1,.12c-.26.09-.38.19-.38.32v5.43c0,.13.12.24.38.32a2.91,2.91,0,0,0,1,.13h5.32a3,3,0,0,0,1-.13c.25-.08.38-.19.38-.32V24.81C21.94,24.68,21.81,24.58,21.56,24.49Zm-1.31,5.7H15.6V24.86h4.65Z"/><path class="cls-1" d="M32,24.49a3.21,3.21,0,0,0-1-.12H26.27a3.31,3.31,0,0,0-1,.12c-.26.09-.38.19-.38.32V26.1q0,.25.54.48l5.25,2.11v1.5H26.6V28.64H24.91v1.6c0,.13.12.24.38.32a3,3,0,0,0,1,.13h4.79a2.89,2.89,0,0,0,1-.13c.25-.08.37-.19.37-.32V28.78c0-.18-.17-.33-.52-.47L26.6,26.2V24.86h4.1v1.43h1.69V24.81C32.39,24.68,32.27,24.58,32,24.49Z"/><path class="cls-1" d="M42.42,24.49a3.17,3.17,0,0,0-1-.12H36.67a3.36,3.36,0,0,0-1,.12c-.25.09-.38.19-.38.32V26.1c0,.17.18.33.55.48l5.25,2.11v1.5H37V28.64H35.31v1.6c0,.13.13.24.38.32a3,3,0,0,0,1,.13h4.79a2.85,2.85,0,0,0,1-.13c.25-.08.37-.19.37-.32V28.78c0-.18-.17-.33-.52-.47L37,26.2V24.86h4.11v1.43h1.68V24.81C42.79,24.68,42.67,24.58,42.42,24.49Z"/><path class="cls-1" d="M50.09,24.35H48.42L45,30.67v0h1.63l.67-1.41h3.78l.66,1.41h1.68Zm-2.54,4.44,1.67-3.43,1.67,3.43Z"/></g></g></svg>